HIERARCHY
ROOT Hips
{
	OFFSET 0.00000 0.00000 0.00000
	CHANNELS 6 Xposition Yposition Zposition Zrotation Yrotation Xrotation 
	JOINT LHipJoint
	{
		OFFSET 0 0 0
		CHANNELS 3 Zrotation Yrotation Xrotation
		JOINT LeftHip
		{
			OFFSET 1.62964 -1.40469 0.78906
			CHANNELS 3 Zrotation Yrotation Xrotation
			JOINT LeftKnee
			{
				OFFSET 2.29640 -6.30932 0.00000
				CHANNELS 3 Zrotation Yrotation Xrotation
				JOINT LeftAnkle
				{
					OFFSET 2.29451 -6.30412 0.00000
					CHANNELS 3 Zrotation Yrotation Xrotation
					JOINT LeftToe
					{
						OFFSET 0.03611 -0.09921 1.56387
						CHANNELS 3 Zrotation Yrotation Xrotation
						End Site
						{
							OFFSET 0.00000 -0.00000 0.80291
						}
					}
				}
			}
		}
	}
	JOINT RHipJoint
	{
		OFFSET 0 0 0
		CHANNELS 3 Zrotation Yrotation Xrotation
		JOINT RightHip
		{
			OFFSET -1.73712 -1.40469 0.78906
			CHANNELS 3 Zrotation Yrotation Xrotation
			JOINT RightKnee
			{
				OFFSET -2.28137 -6.26801 0.00000
				CHANNELS 3 Zrotation Yrotation Xrotation
				JOINT RightAnkle
				{
					OFFSET -2.28681 -6.28298 0.00000
					CHANNELS 3 Zrotation Yrotation Xrotation
					JOINT RightToe
					{
						OFFSET -0.15927 -0.43759 1.61103
						CHANNELS 3 Zrotation Yrotation Xrotation
						End Site
						{
							OFFSET -0.00000 -0.00000 0.84630
						}
					}
				}
			}
		}
	}
	JOINT lowerback
	{
		OFFSET 0 0 0
		CHANNELS 3 Zrotation Yrotation Xrotation
		JOINT Chest
		{
			OFFSET -0.04227 2.04338 -0.00225
			CHANNELS 3 Zrotation Yrotation Xrotation
			JOINT Chest2
			{
				OFFSET -0.02148 2.04482 -0.04273
				CHANNELS 3 Zrotation Yrotation Xrotation
				JOINT lowerneck
				{
					OFFSET 0 0 0
					CHANNELS 3 Zrotation Yrotation Xrotation
					JOINT Neck
					{
						OFFSET 0.09180 1.44629 0.19359
						CHANNELS 3 Zrotation Yrotation Xrotation
						JOINT Head
						{
							OFFSET 0.00887 1.40645 0.14750
							CHANNELS 3 Zrotation Yrotation Xrotation
							End Site
							{
								OFFSET -0.00669 1.50671 0.03707
							}
						}
					}
				}
				JOINT LeftCollar
				{
					OFFSET 0 0 0
					CHANNELS 3 Zrotation Yrotation Xrotation
					JOINT LeftShoulder
					{
						OFFSET 2.17674 1.86763 -0.06520
CHANNELS 3 Zrotation Xrotation Yrotation
						JOINT LeftElbow
						{
OFFSET 0 -4.657760 0.000000
CHANNELS 3 Zrotation Xrotation Yrotation
							JOINT LeftWrist
							{
OFFSET 0 -3.555390 0.000000
CHANNELS 3 Zrotation Xrotation Yrotation
								JOINT lhand
								{
									OFFSET 0 0 0
CHANNELS 3 Zrotation Xrotation Yrotation
									JOINT LFingers
									{
OFFSET 0 -0.707260 0.000000
CHANNELS 3 Zrotation Xrotation Yrotation
										End Site
										{
OFFSET 0 -0.570220 0.000000
										}
									}
								}
								JOINT LThumb
								{
OFFSET 0 0.000000 0.000000
CHANNELS 3 Zrotation Xrotation Yrotation
									End Site
									{
OFFSET 0 -0.578920 0.578920
									}
								}
							}
						}
					}
				}
				JOINT RightCollar
				{
					OFFSET 0 0 0
					CHANNELS 3 Zrotation Yrotation Xrotation
					JOINT RightShoulder
					{
						OFFSET -2.80694 1.55459 -0.32496
CHANNELS 3 Zrotation Xrotation Yrotation
						JOINT RightElbow
						{
OFFSET 0 -4.719250 -0.000000
CHANNELS 3 Zrotation Xrotation Yrotation
							JOINT RightWrist
							{
OFFSET 0 -3.569900 0.000000
CHANNELS 3 Zrotation Xrotation Yrotation
								JOINT rhand
								{
									OFFSET 0 0 0
CHANNELS 3 Zrotation Xrotation Yrotation
									JOINT RFingers
									{
OFFSET 0 -0.507760 0.000000
CHANNELS 3 Zrotation Xrotation Yrotation
										End Site
										{
OFFSET 0 -0.409370 0.000000
										}
									}
								}
								JOINT RThumb
								{
OFFSET 0 0.000000 0.000000
CHANNELS 3 Zrotation Xrotation Yrotation
									End Site
									{
OFFSET 0 -0.415620 0.415620
									}
								}
							}
						}
					}
				}
			}
		}
	}
}
MOTION
Frames: 15
Frame Time: .0083333
-1.1258 19.6400 20.8481 177.2110 -1.4718 -154.0750 0.0000 0.0000 0.0000 -23.3140 -15.4460 -20.7667 0.1705 2.6603 7.3345 0.0837 -2.0157 -5.1371 0.1580 2.5611 7.0592 0.0000 0.0000 0.0000 16.9683 12.3011 -23.2028 -0.2318 -3.0985 8.5532 -0.9058 6.1258 -16.9729 -0.7401 5.4956 -15.3276 -8.0474 -2.6056 -25.4388 -0.7268 -1.3670 -0.4090 3.2409 -1.3085 14.0195 -2.9068 -8.9672 -3.0274 3.4429 -11.2038 24.0633 0.8067 -4.6085 8.3220 -0.0000 0.0000 0.0000 7.0484 1.2687 -14.0453 15.4425 -24.7589 3.4091 23.4327 -28.0091 11.9422 0.0 0.0 0.0 -7.1250 0.0 0.0 -2.6193 17.0077 -1.7404 -0.0000 0.0000 0.0000 0.1467 8.8508 20.2604 -36.4833 -45.8427 -15.8683 -12.2636 4.0521 52.661 0.0 0.0 0.0 7.1250 0.0 -0.0 65.4028 75.7263 -51.4167
-1.1224 19.6429 20.8430 177.5860 -1.6185 -153.9820 0.0000 0.0000 0.0000 -22.8014 -15.4280 -20.8992 0.1713 2.6659 7.3500 0.1256 -2.5036 -6.2950 1.3470 -7.3477 -20.7498 0.0000 0.0000 0.0000 17.3680 12.6556 -23.0759 -0.2284 -3.0758 8.4899 -0.9299 6.1539 -17.1997 -0.4509 4.3081 -11.9450 -7.6996 -2.5062 -25.5684 -0.6336 -1.3527 -0.5208 3.1550 -1.2806 13.9492 -2.8480 -9.0086 -2.7859 3.3415 -11.2136 24.1561 0.7751 -4.6052 8.3007 0.0000 -0.0000 0.0000 6.8794 2.8244 -21.1929 16.1630 -25.7411 3.7165 6.3676 -16.5922 8.5636 0.0 0.0 0.0 -7.1250 0.0 0.0 -14.7271 21.4614 -8.6001 0.0000 -0.0000 0.0000 0.0391 8.7813 18.7386 -34.4442 -44.4111 -14.423 -10.2599 0.2016 45.6759 0.0 0.0 0.0 7.1250 0.0 -0.0 45.6204 71.4793 -30.6165
-1.1207 19.6473 20.8408 177.9150 -1.7868 -153.8270 0.0000 0.0000 0.0000 -22.3159 -15.4426 -21.1467 0.1734 2.6822 7.3951 0.1027 -2.1828 -5.6894 0.3531 -3.8178 -10.5645 0.0000 0.0000 0.0000 17.7362 12.8887 -23.1472 -0.2275 -3.0704 8.4749 -0.9262 5.9691 -17.1660 -0.3844 3.9816 -11.0250 -7.3541 -2.4561 -25.8803 -0.5412 -1.3787 -0.5540 3.0489 -1.2772 14.0790 -2.8506 -9.0370 -2.5073 3.3080 -11.2288 24.0845 0.7775 -4.6172 8.2250 0.0000 0.0000 0.0000 6.9249 3.4944 -24.377 16.9031 -26.7298 4.0436 15.5976 -14.7443 7.6737 0.0 0.0 0.0 -7.1250 0.0 0.0 -8.1629 22.0441 -4.5476 0.0000 0.0000 0.0000 -0.1409 7.9554 13.3691 -27.4857 -38.6384 -9.8009 -11.0076 2.443 53.9134 0.0 0.0 0.0 7.1250 0.0 -0.0 70.6849 75.594 -56.129
-1.1207 19.6544 20.8396 178.3950 -2.0548 -153.5720 0.0000 0.0000 0.0000 -21.6195 -15.4487 -21.6034 0.1802 2.7341 7.5395 0.1198 -2.5650 -6.1528 1.4497 -7.6111 -21.5389 0.0000 0.0000 0.0000 18.2949 13.0857 -23.3745 -0.2281 -3.0739 8.4846 -0.9387 5.9046 -17.2835 -0.3765 3.9407 -10.9098 -6.8392 -2.4138 -26.2670 -0.3777 -1.4762 -0.6164 2.8997 -1.2975 14.2202 -2.8352 -9.0396 -2.2163 3.3130 -11.2215 23.9565 0.7926 -4.6167 8.1284 0.0000 -0.0000 0.0000 6.9454 3.7413 -25.6608 17.4495 -27.4465 4.2925 19.4174 -14.1131 8.023 0.0 0.0 0.0 -7.1250 0.0 0.0 -5.3846 21.4947 -3.0503 0.0000 -0.0000 0.0000 -0.4411 7.0988 7.4847 -23.3724 -34.4935 -7.3481 -9.6106 6.0406 53.5551 0.0 0.0 0.0 7.1250 0.0 -0.0 69.8667 74.979 -54.685
-1.1228 19.6631 20.8372 178.8890 -2.3496 -153.4130 0.0000 0.0000 0.0000 -20.9322 -15.4536 -21.9243 0.1860 2.7775 7.6598 0.1114 -2.6633 -5.9457 1.5228 -7.7920 -22.0840 0.0000 0.0000 0.0000 18.8945 13.1845 -23.4542 -0.2236 -3.0441 8.4016 -0.9469 5.9469 -17.3595 -0.3533 3.8188 -10.5674 -6.2829 -2.3509 -26.4641 -0.2200 -1.5855 -0.7434 2.7191 -1.3160 14.1774 -2.8579 -9.0944 -2.1887 3.2701 -11.2262 24.4825 0.7804 -4.5816 8.3021 0.0000 0.0000 0.0000 6.6094 3.3604 -25.2848 17.1168 -27.0115 4.1402 22.543 -12.2703 9.0954 0.0 0.0 0.0 -7.1250 0.0 0.0 -3.1419 20.1533 -1.8698 0.0000 0.0000 0.0000 -0.4366 7.4789 8.5587 -23.2994 -34.4146 -7.3068 -11.7549 6.5768 59.382 0.0 0.0 0.0 7.1250 0.0 -0.0 92.7173 76.0743 -78.4606
-1.1228 19.6649 20.8376 178.9330 -2.3649 -153.4620 0.0000 0.0000 0.0000 -20.8689 -15.4746 -21.8532 0.1854 2.7729 7.6471 0.1065 -2.6455 -5.8164 1.3677 -7.4016 -20.9108 0.0000 0.0000 0.0000 18.9358 13.2396 -23.3444 -0.2203 -3.0211 8.3376 -0.9351 5.8722 -17.2504 -0.3199 3.6354 -10.0530 -6.2319 -2.3188 -26.3720 -0.2200 -1.5799 -0.8433 2.6950 -1.3083 14.0048 -2.8580 -9.1039 -1.9473 3.2949 -11.2018 24.6411 0.8023 -4.5485 8.3138 -0.0000 0.0000 0.0000 6.5247 3.3898 -25.8606 17.1888 -27.106 4.173 25.6986 -11.3195 9.6607 0.0 0.0 0.0 -7.1250 0.0 0.0 -0.9093 19.2827 -0.5581 -0.0000 0.0000 0.0000 -0.4135 7.8026 8.845 -23.3700 -34.4909 -7.3467 -11.6593 5.5553 60.66 0.0 0.0 0.0 7.1250 0.0 -0.0 83.4081 -75.8149 97.7386
-1.1215 19.6658 20.8370 178.9020 -2.3616 -153.4750 0.0000 0.0000 0.0000 -20.8884 -15.5276 -21.8263 0.1861 2.7787 7.6633 0.1050 -2.6145 -5.7732 1.2822 -7.1758 -20.2372 0.0000 0.0000 0.0000 18.8907 13.2810 -23.3233 -0.2204 -3.0223 8.3409 -0.9276 5.7916 -17.1813 -0.3070 3.5622 -9.8480 -6.2745 -2.3298 -26.2888 -0.2080 -1.5878 -0.8468 2.7322 -1.3134 13.9572 -2.8803 -9.0516 -1.9797 3.3938 -11.1598 24.5348 0.8409 -4.5290 8.2890 0.0000 0.0000 0.0000 6.5579 3.3572 -26.3802 17.8585 -27.9756 4.4827 25.5391 -11.7221 9.7146 0.0 0.0 0.0 -7.1250 0.0 0.0 -1.0256 19.2374 -0.6305 0.0000 0.0000 0.0000 -0.5012 7.7073 9.1103 -23.6338 -34.7746 -7.4967 -11.4383 5.7242 61.1774 0.0 0.0 0.0 7.1250 0.0 -0.0 85.1816 -75.7298 99.7069
-1.1212 19.6658 20.8359 178.8610 -2.3574 -153.4840 0.0000 0.0000 0.0000 -20.9591 -15.5071 -21.8495 0.1893 2.8020 7.7279 0.1049 -2.7206 -5.7787 1.2765 -7.1603 -20.1912 0.0000 0.0000 0.0000 18.8462 13.2408 -23.3382 -0.2221 -3.0334 8.3718 -0.9236 5.8025 -17.1436 -0.3182 3.6262 -10.0275 -6.3287 -2.3420 -26.2503 -0.2055 -1.5902 -0.8482 2.7662 -1.3175 13.9363 -2.8386 -9.0255 -2.0068 3.3628 -11.1271 24.4858 0.8260 -4.5165 8.2712 -0.0000 -0.0000 0.0000 6.5892 3.3315 -26.7767 18.4586 -28.7404 4.7677 25.3462 -12.0307 9.9653 0.0 0.0 0.0 -7.1250 0.0 0.0 -1.1755 18.9789 -0.7294 -0.0000 -0.0000 0.0000 -0.5846 7.5839 9.4149 -23.5151 -34.6473 -7.4291 -15.0844 7.8857 59.6711 0.0 0.0 0.0 7.1250 0.0 -0.0 95.1857 77.0902 -82.1269
-1.1229 19.6652 20.8343 178.8730 -2.3618 -153.5300 0.0000 0.0000 0.0000 -20.9742 -15.4906 -21.8124 0.1913 2.8167 7.7687 0.1050 -2.7031 -5.7818 1.3062 -7.2398 -20.4279 0.0000 0.0000 0.0000 18.8862 13.1447 -23.3049 -0.2222 -3.0342 8.3741 -0.9269 5.8536 -17.1740 -0.3404 3.7492 -10.3722 -6.2951 -2.3442 -26.2435 -0.1940 -1.5993 -0.8169 2.7567 -1.3193 13.9703 -2.8174 -8.9887 -2.0593 3.2824 -11.0680 24.4621 0.7989 -4.4972 8.2640 0.0000 -0.0000 0.0000 6.5634 3.2141 -26.9535 18.9424 -29.3471 5.0026 25.2226 -11.8657 9.7122 0.0 0.0 0.0 -7.1250 0.0 0.0 -1.2505 19.2679 -0.768 0.0000 -0.0000 0.0000 -0.6414 7.4701 9.6763 -23.7122 -34.8585 -7.5414 -14.9678 7.6479 59.8045 0.0 0.0 0.0 7.1250 0.0 -0.0 95.6974 77.0209 -82.5908
-1.1234 19.6647 20.8353 178.8650 -2.3729 -153.5300 0.0000 0.0000 0.0000 -20.9694 -15.5621 -21.8156 0.1930 2.8289 7.8028 0.1083 -2.5235 -5.8545 1.4148 -7.5227 -21.2734 0.0000 0.0000 0.0000 18.8738 13.1780 -23.2920 -0.2220 -3.0331 8.3711 -0.9358 5.7973 -17.2582 -0.3644 3.8777 -10.7329 -6.3123 -2.3717 -26.2251 -0.1636 -1.6353 -0.8206 2.7886 -1.3374 13.9611 -2.8707 -8.9440 -2.0085 3.2640 -11.0054 24.3433 0.8096 -4.4831 8.2142 0.0000 -0.0000 0.0000 6.5362 3.156 -27.2312 19.4221 -29.9397 5.2398 25.1836 -11.657 9.5649 0.0 0.0 0.0 -7.1250 0.0 0.0 -1.2712 19.4331 -0.776 0.0000 -0.0000 0.0000 -0.7425 7.4151 10.0232 -23.9671 -35.1294 -7.6876 -15.1144 7.702 59.8186 0.0 0.0 0.0 7.1250 0.0 -0.0 95.8309 77.0634 -82.7757
-1.1230 19.6646 20.8311 178.8600 -2.2386 -153.5950 0.0000 0.0000 0.0000 -21.0181 -15.4987 -21.6794 0.1890 2.7996 7.7212 0.1172 -2.3152 -6.0787 1.5111 -7.7633 -21.9974 0.0000 0.0000 0.0000 18.8730 13.2383 -23.1846 -0.2222 -3.0345 8.3749 -0.9313 5.8413 -17.2155 -0.3720 3.9174 -10.8443 -6.3590 -2.3483 -26.2081 -0.1607 -1.5876 -0.7942 2.8372 -1.3189 13.9798 -2.8535 -8.9703 -1.9687 3.2599 -11.0515 24.2453 0.8039 -4.5115 8.1741 0.0000 -0.0000 0.0000 6.5853 3.1573 -27.6639 19.9990 -30.6411 5.5308 25.1322 -11.9299 9.8295 0.0 0.0 0.0 -7.1250 0.0 0.0 -1.3205 19.1472 -0.8146 0.0000 -0.0000 0.0000 -0.8362 7.3567 10.3571 -24.2348 -35.4116 -7.8422 -15.6763 8.0199 59.5328 0.0 0.0 0.0 7.1250 0.0 -0.0 94.8868 77.3114 -82.0473
-1.1205 19.6640 20.8347 178.8780 -2.2724 -153.5070 0.0000 0.0000 0.0000 -20.9315 -15.5519 -21.8313 0.1925 2.8258 7.7943 0.1200 -2.3821 -6.1532 1.4626 -7.6433 -21.6358 0.0000 0.0000 0.0000 18.8816 13.2962 -23.2857 -0.2230 -3.0401 8.3903 -0.9291 5.7930 -17.1953 -0.3444 3.7710 -10.4334 -6.3666 -2.3709 -26.2297 -0.1320 -1.6214 -0.8192 2.8616 -1.3363 13.9664 -2.8760 -8.9851 -1.9717 3.3170 -11.0900 24.1828 0.8229 -4.5318 8.1596 0.0000 0.0000 0.0000 6.6186 3.1164 -27.9539 20.5698 -31.3227 5.8247 24.897 -12.2065 9.9854 0.0 0.0 0.0 -7.1250 0.0 0.0 -1.4952 18.9971 -0.9273 0.0000 0.0000 0.0000 -0.8978 7.2823 10.5894 -24.4400 -35.6261 -7.9614 -15.723 7.8447 59.5523 0.0 0.0 0.0 7.1250 0.0 -0.0 94.9985 77.3214 -82.1746
-1.1201 19.6647 20.8330 178.9260 -2.2292 -153.5590 0.0000 0.0000 0.0000 -20.8849 -15.4972 -21.7509 0.1916 2.8192 7.7759 0.1194 -2.4783 -6.1405 1.3124 -7.2564 -20.4773 0.0000 0.0000 0.0000 18.9753 13.2686 -23.2090 -0.2205 -3.0228 8.3423 -0.9117 5.8293 -17.0303 -0.3303 3.6936 -10.2161 -6.3460 -2.3855 -26.1950 -0.0863 -1.6496 -0.7948 2.8927 -1.3483 13.9804 -2.8960 -8.9821 -2.0113 3.2623 -11.0810 24.1584 0.8069 -4.5384 8.1560 0.0000 -0.0000 0.0000 6.56 3.0325 -28.0561 21.0412 -31.8764 6.0717 24.8891 -12.1293 9.8848 0.0 0.0 0.0 -7.1250 0.0 0.0 -1.4960 19.1079 -0.9242 0.0000 -0.0000 0.0000 -0.9802 7.2185 10.7551 -24.6147 -35.8076 -8.0634 -15.8273 7.5984 59.1847 0.0 0.0 0.0 7.1250 0.0 -0.0 93.4374 77.4393 -80.6723
-1.1198 19.6642 20.8354 178.8680 -2.2675 -153.5410 0.0000 0.0000 0.0000 -20.9297 -15.5253 -21.7882 0.1947 2.8417 7.8384 0.1207 -2.5649 -6.1754 1.2864 -7.1870 -20.2705 0.0000 0.0000 0.0000 18.8804 13.4341 -23.1697 -0.2198 -3.0180 8.3288 -0.9076 5.5219 -16.9982 -0.3751 3.9334 -10.8893 -6.4395 -2.4618 -26.1876 -0.0496 -1.7240 -0.7765 2.9606 -1.3897 14.0103 -2.8063 -9.0404 -2.0918 3.0731 -11.1381 24.1974 0.7218 -4.5760 8.1687 -0.0000 -0.0000 0.0000 6.5073 2.9187 -28.174 21.4665 -32.3688 6.2978 25.0406 -12.0211 9.929 0.0 0.0 0.0 -7.1250 0.0 0.0 -1.3905 19.0461 -0.8609 -0.0000 -0.0000 0.0000 -1.051 7.1724 10.9581 -24.8745 -36.0755 -8.2159 -15.8862 7.3436 58.9589 0.0 0.0 0.0 7.1250 0.0 -0.0 92.4628 77.5056 -79.7324
-1.1224 19.6639 20.8284 178.9100 -2.1799 -153.6360 0.0000 0.0000 0.0000 -20.9348 -15.5023 -21.5909 0.1897 2.8047 7.7354 0.1277 -2.4170 -6.3466 1.5275 -7.8033 -22.1184 0.0000 0.0000 0.0000 18.9143 13.5595 -22.9659 -0.2172 -3.0001 8.2790 -0.9745 5.6238 -17.6225 -0.2542 3.2442 -8.9593 -6.4124 -2.4457 -26.2391 -0.0307 -1.6974 -0.6990 2.9753 -1.3774 14.1287 -2.7221 -9.1153 -2.1389 2.9457 -11.2254 24.2511 0.6567 -4.6204 8.1853 -0.0000 -0.0000 0.0000 6.4848 2.8059 -28.3041 21.8710 -32.8309 6.5157 25.1715 -12.1011 10.2607 0.0 0.0 0.0 -7.1250 0.0 0.0 -1.3144 18.6706 -0.8247 -0.0000 -0.0000 0.0000 -1.111 7.1366 11.3155 -25.2484 -36.4568 -8.4371 -16.1345 7.7077 59.6549 0.0 0.0 0.0 7.1250 0.0 -0.0 95.6649 77.4258 -82.9819
